<svg data-v-fde0c5aa="" xmlns="http://www.w3.org/2000/svg" viewBox="0 0 300 300" class="iconLeft"><!----><defs data-v-fde0c5aa=""><!----></defs><rect data-v-fde0c5aa="" fill="transparent" x="0" y="0" width="300px" height="300px" class="logo-background-square"></rect><defs data-v-fde0c5aa=""><!----></defs><g data-v-fde0c5aa="" id="2c36746d-dd62-4f0a-bbff-ccf56e9fa300" fill="#000000" transform="matrix(1.5325096732046197,0,0,1.5325096732046197,93.12502773542151,135.59440929110383)"><path d="M1.54 13.09L1.54 13.09Q1.40 13.09 1.32 13.00L1.32 13.00L1.32 13.00Q1.23 12.91 1.23 12.77L1.23 12.77L1.23 3.63L1.23 3.63Q1.23 3.47 1.32 3.38L1.32 3.38L1.32 3.38Q1.40 3.29 1.54 3.29L1.54 3.29L2.16 3.29L2.16 3.29Q2.30 3.29 2.37 3.35L2.37 3.35L2.37 3.35Q2.44 3.40 2.51 3.49L2.51 3.49L7.20 10.71L7.20 3.63L7.20 3.63Q7.20 3.47 7.29 3.38L7.29 3.38L7.29 3.38Q7.38 3.29 7.52 3.29L7.52 3.29L8.15 3.29L8.15 3.29Q8.30 3.29 8.39 3.38L8.39 3.38L8.39 3.38Q8.48 3.47 8.48 3.63L8.48 3.63L8.48 12.75L8.48 12.75Q8.48 12.89 8.39 12.99L8.39 12.99L8.39 12.99Q8.30 13.09 8.16 13.09L8.16 13.09L7.53 13.09L7.53 13.09Q7.29 13.09 7.20 12.89L7.20 12.89L2.51 5.74L2.51 12.77L2.51 12.77Q2.51 12.91 2.42 13.00L2.42 13.00L2.42 13.00Q2.32 13.09 2.18 13.09L2.18 13.09L1.54 13.09ZM10.96 4.44L10.96 4.44Q10.82 4.44 10.73 4.35L10.73 4.35L10.73 4.35Q10.64 4.26 10.64 4.12L10.64 4.12L10.64 3.39L10.64 3.39Q10.64 3.25 10.73 3.15L10.73 3.15L10.73 3.15Q10.82 3.05 10.96 3.05L10.96 3.05L11.79 3.05L11.79 3.05Q11.93 3.05 12.03 3.15L12.03 3.15L12.03 3.15Q12.12 3.25 12.12 3.39L12.12 3.39L12.12 4.12L12.12 4.12Q12.12 4.26 12.03 4.35L12.03 4.35L12.03 4.35Q11.93 4.44 11.79 4.44L11.79 4.44L10.96 4.44ZM11.07 13.09L11.07 13.09Q10.93 13.09 10.84 13.00L10.84 13.00L10.84 13.00Q10.75 12.91 10.75 12.77L10.75 12.77L10.75 6.13L10.75 6.13Q10.75 5.99 10.84 5.90L10.84 5.90L10.84 5.90Q10.93 5.81 11.07 5.81L11.07 5.81L11.69 5.81L11.69 5.81Q11.83 5.81 11.92 5.90L11.92 5.90L11.92 5.90Q12.01 5.99 12.01 6.13L12.01 6.13L12.01 12.77L12.01 12.77Q12.01 12.91 11.92 13.00L11.92 13.00L11.92 13.00Q11.83 13.09 11.69 13.09L11.69 13.09L11.07 13.09ZM14.43 13.09L14.43 13.09Q14.29 13.09 14.20 13.00L14.20 13.00L14.20 13.00Q14.11 12.91 14.11 12.77L14.11 12.77L14.11 6.15L14.11 6.15Q14.11 6.01 14.20 5.91L14.20 5.91L14.20 5.91Q14.29 5.81 14.43 5.81L14.43 5.81L15.02 5.81L15.02 5.81Q15.18 5.81 15.27 5.90L15.27 5.90L15.27 5.90Q15.36 5.99 15.36 6.15L15.36 6.15L15.36 6.76L15.36 6.76Q15.93 5.81 17.30 5.81L17.30 5.81L17.85 5.81L17.85 5.81Q18.00 5.81 18.09 5.89L18.09 5.89L18.09 5.89Q18.17 5.98 18.17 6.13L18.17 6.13L18.17 6.65L18.17 6.65Q18.17 6.79 18.09 6.88L18.09 6.88L18.09 6.88Q18.00 6.97 17.85 6.97L17.85 6.97L17.05 6.97L17.05 6.97Q16.28 6.97 15.84 7.42L15.84 7.42L15.84 7.42Q15.40 7.87 15.40 8.64L15.40 8.64L15.40 12.77L15.40 12.77Q15.40 12.91 15.30 13.00L15.30 13.00L15.30 13.00Q15.20 13.09 15.06 13.09L15.06 13.09L14.43 13.09ZM21.39 13.23L21.39 13.23Q20.71 13.23 20.13 12.95L20.13 12.95L20.13 12.95Q19.54 12.67 19.20 12.19L19.20 12.19L19.20 12.19Q18.86 11.70 18.86 11.12L18.86 11.12L18.86 11.12Q18.86 10.19 19.61 9.60L19.61 9.60L19.61 9.60Q20.37 9.02 21.67 8.82L21.67 8.82L23.77 8.53L23.77 8.12L23.77 8.12Q23.77 6.68 22.11 6.68L22.11 6.68L22.11 6.68Q21.46 6.68 21.07 6.94L21.07 6.94L21.07 6.94Q20.68 7.20 20.50 7.55L20.50 7.55L20.50 7.55Q20.44 7.69 20.38 7.73L20.38 7.73L20.38 7.73Q20.31 7.78 20.20 7.78L20.20 7.78L19.66 7.78L19.66 7.78Q19.53 7.78 19.44 7.69L19.44 7.69L19.44 7.69Q19.35 7.60 19.35 7.48L19.35 7.48L19.35 7.48Q19.35 7.15 19.65 6.73L19.65 6.73L19.65 6.73Q19.95 6.30 20.58 5.98L20.58 5.98L20.58 5.98Q21.21 5.67 22.12 5.67L22.12 5.67L22.12 5.67Q23.69 5.67 24.37 6.40L24.37 6.40L24.37 6.40Q25.05 7.13 25.05 8.22L25.05 8.22L25.05 12.77L25.05 12.77Q25.05 12.91 24.96 13.00L24.96 13.00L24.96 13.00Q24.86 13.09 24.72 13.09L24.72 13.09L24.11 13.09L24.11 13.09Q23.97 13.09 23.88 13.00L23.88 13.00L23.88 13.00Q23.80 12.91 23.80 12.77L23.80 12.77L23.80 12.15L23.80 12.15Q23.49 12.61 22.90 12.92L22.90 12.92L22.90 12.92Q22.32 13.23 21.39 13.23L21.39 13.23ZM21.67 12.21L21.67 12.21Q22.60 12.21 23.18 11.61L23.18 11.61L23.18 11.61Q23.77 11.00 23.77 9.86L23.77 9.86L23.77 9.46L22.13 9.70L22.13 9.70Q21.13 9.84 20.61 10.18L20.61 10.18L20.61 10.18Q20.09 10.51 20.09 11.02L20.09 11.02L20.09 11.02Q20.09 11.59 20.56 11.90L20.56 11.90L20.56 11.90Q21.03 12.21 21.67 12.21L21.67 12.21ZM27.40 13.09L27.40 13.09Q27.26 13.09 27.17 13.00L27.17 13.00L27.17 13.00Q27.08 12.91 27.08 12.77L27.08 12.77L27.08 6.13L27.08 6.13Q27.08 5.99 27.17 5.90L27.17 5.90L27.17 5.90Q27.26 5.81 27.40 5.81L27.40 5.81L28 5.81L28 5.81Q28.15 5.81 28.24 5.89L28.24 5.89L28.24 5.89Q28.32 5.98 28.32 6.13L28.32 6.13L28.32 6.75L28.32 6.75Q28.74 6.23 29.30 5.95L29.30 5.95L29.30 5.95Q29.85 5.67 30.67 5.67L30.67 5.67L30.67 5.67Q32.02 5.67 32.76 6.53L32.76 6.53L32.76 6.53Q33.50 7.39 33.50 8.81L33.50 8.81L33.50 12.77L33.50 12.77Q33.50 12.91 33.41 13.00L33.41 13.00L33.41 13.00Q33.32 13.09 33.18 13.09L33.18 13.09L32.54 13.09L32.54 13.09Q32.40 13.09 32.30 13.00L32.30 13.00L32.30 13.00Q32.21 12.91 32.21 12.77L32.21 12.77L32.21 8.89L32.21 8.89Q32.21 7.88 31.72 7.32L31.72 7.32L31.72 7.32Q31.23 6.76 30.32 6.76L30.32 6.76L30.32 6.76Q29.43 6.76 28.90 7.33L28.90 7.33L28.90 7.33Q28.36 7.90 28.36 8.89L28.36 8.89L28.36 12.77L28.36 12.77Q28.36 12.91 28.27 13.00L28.27 13.00L28.27 13.00Q28.18 13.09 28.04 13.09L28.04 13.09L27.40 13.09ZM35.87 4.44L35.87 4.44Q35.73 4.44 35.64 4.35L35.64 4.35L35.64 4.35Q35.55 4.26 35.55 4.12L35.55 4.12L35.55 3.39L35.55 3.39Q35.55 3.25 35.64 3.15L35.64 3.15L35.64 3.15Q35.73 3.05 35.87 3.05L35.87 3.05L36.74 3.05L36.74 3.05Q36.88 3.05 36.97 3.15L36.97 3.15L36.97 3.15Q37.06 3.25 37.06 3.39L37.06 3.39L37.06 4.12L37.06 4.12Q37.06 4.26 36.97 4.35L36.97 4.35L36.97 4.35Q36.88 4.44 36.74 4.44L36.74 4.44L35.87 4.44ZM34.33 15.75L34.33 15.75Q34.19 15.75 34.10 15.66L34.10 15.66L34.10 15.66Q34.02 15.57 34.02 15.43L34.02 15.43L34.02 14.98L34.02 14.98Q34.02 14.84 34.10 14.76L34.10 14.76L34.10 14.76Q34.19 14.67 34.33 14.67L34.33 14.67L34.52 14.67L34.52 14.67Q35.21 14.67 35.44 14.31L35.44 14.31L35.44 14.31Q35.67 13.96 35.67 13.27L35.67 13.27L35.67 6.13L35.67 6.13Q35.67 5.98 35.76 5.89L35.76 5.89L35.76 5.89Q35.85 5.81 35.99 5.81L35.99 5.81L36.62 5.81L36.62 5.81Q36.76 5.81 36.85 5.90L36.85 5.90L36.85 5.90Q36.95 5.99 36.95 6.13L36.95 6.13L36.95 13.29L36.95 13.29Q36.95 15.75 34.59 15.75L34.59 15.75L34.33 15.75ZM41.08 13.23L41.08 13.23Q40.39 13.23 39.81 12.95L39.81 12.95L39.81 12.95Q39.23 12.67 38.88 12.19L38.88 12.19L38.88 12.19Q38.54 11.70 38.54 11.12L38.54 11.12L38.54 11.12Q38.54 10.19 39.30 9.60L39.30 9.60L39.30 9.60Q40.05 9.02 41.36 8.82L41.36 8.82L43.46 8.53L43.46 8.12L43.46 8.12Q43.46 6.68 41.79 6.68L41.79 6.68L41.79 6.68Q41.15 6.68 40.75 6.94L40.75 6.94L40.75 6.94Q40.36 7.20 40.18 7.55L40.18 7.55L40.18 7.55Q40.12 7.69 40.06 7.73L40.06 7.73L40.06 7.73Q40.00 7.78 39.89 7.78L39.89 7.78L39.34 7.78L39.34 7.78Q39.21 7.78 39.12 7.69L39.12 7.69L39.12 7.69Q39.03 7.60 39.03 7.48L39.03 7.48L39.03 7.48Q39.03 7.15 39.33 6.73L39.33 6.73L39.33 6.73Q39.63 6.30 40.26 5.98L40.26 5.98L40.26 5.98Q40.89 5.67 41.80 5.67L41.80 5.67L41.80 5.67Q43.37 5.67 44.05 6.40L44.05 6.40L44.05 6.40Q44.73 7.13 44.73 8.22L44.73 8.22L44.73 12.77L44.73 12.77Q44.73 12.91 44.64 13.00L44.64 13.00L44.64 13.00Q44.55 13.09 44.41 13.09L44.41 13.09L43.79 13.09L43.79 13.09Q43.65 13.09 43.57 13.00L43.57 13.00L43.57 13.00Q43.48 12.91 43.48 12.77L43.48 12.77L43.48 12.15L43.48 12.15Q43.18 12.61 42.59 12.92L42.59 12.92L42.59 12.92Q42 13.23 41.08 13.23L41.08 13.23ZM41.36 12.21L41.36 12.21Q42.28 12.21 42.87 11.61L42.87 11.61L42.87 11.61Q43.46 11.00 43.46 9.86L43.46 9.86L43.46 9.46L41.82 9.70L41.82 9.70Q40.81 9.84 40.29 10.18L40.29 10.18L40.29 10.18Q39.77 10.51 39.77 11.02L39.77 11.02L39.77 11.02Q39.77 11.59 40.24 11.90L40.24 11.90L40.24 11.90Q40.71 12.21 41.36 12.21L41.36 12.21ZM47.08 13.09L47.08 13.09Q46.94 13.09 46.85 13.00L46.85 13.00L46.85 13.00Q46.76 12.91 46.76 12.77L46.76 12.77L46.76 6.13L46.76 6.13Q46.76 5.99 46.85 5.90L46.85 5.90L46.85 5.90Q46.94 5.81 47.08 5.81L47.08 5.81L47.68 5.81L47.68 5.81Q47.84 5.81 47.92 5.89L47.92 5.89L47.92 5.89Q48.01 5.98 48.01 6.13L48.01 6.13L48.01 6.75L48.01 6.75Q48.43 6.23 48.98 5.95L48.98 5.95L48.98 5.95Q49.53 5.67 50.36 5.67L50.36 5.67L50.36 5.67Q51.70 5.67 52.44 6.53L52.44 6.53L52.44 6.53Q53.19 7.39 53.19 8.81L53.19 8.81L53.19 12.77L53.19 12.77Q53.19 12.91 53.09 13.00L53.09 13.00L53.09 13.00Q53.00 13.09 52.86 13.09L52.86 13.09L52.22 13.09L52.22 13.09Q52.08 13.09 51.99 13.00L51.99 13.00L51.99 13.00Q51.90 12.91 51.90 12.77L51.90 12.77L51.90 8.89L51.90 8.89Q51.90 7.88 51.41 7.32L51.41 7.32L51.41 7.32Q50.92 6.76 50.01 6.76L50.01 6.76L50.01 6.76Q49.11 6.76 48.58 7.33L48.58 7.33L48.58 7.33Q48.05 7.90 48.05 8.89L48.05 8.89L48.05 12.77L48.05 12.77Q48.05 12.91 47.96 13.00L47.96 13.00L47.96 13.00Q47.87 13.09 47.73 13.09L47.73 13.09L47.08 13.09ZM55.48 6.22L55.48 6.22Q55.23 6.22 55.20 5.91L55.20 5.91L54.96 3.47L54.96 3.42L54.96 3.42Q54.96 3.29 55.04 3.22L55.04 3.22L55.04 3.22Q55.12 3.15 55.24 3.15L55.24 3.15L56.13 3.15L56.13 3.15Q56.27 3.15 56.34 3.24L56.34 3.24L56.34 3.24Q56.42 3.33 56.41 3.47L56.41 3.47L56.17 5.91L56.17 5.91Q56.14 6.22 55.89 6.22L55.89 6.22L55.48 6.22ZM60.75 13.23L60.75 13.23Q59.78 13.23 59.11 12.91L59.11 12.91L59.11 12.91Q58.45 12.60 58.13 12.19L58.13 12.19L58.13 12.19Q57.81 11.79 57.81 11.52L57.81 11.52L57.81 11.52Q57.81 11.38 57.90 11.30L57.90 11.30L57.90 11.30Q58.00 11.23 58.11 11.23L58.11 11.23L58.70 11.23L58.70 11.23Q58.79 11.23 58.83 11.26L58.83 11.26L58.83 11.26Q58.88 11.28 58.97 11.38L58.97 11.38L58.97 11.38Q59.29 11.77 59.69 12.00L59.69 12.00L59.69 12.00Q60.09 12.22 60.76 12.22L60.76 12.22L60.76 12.22Q61.52 12.22 61.97 11.94L61.97 11.94L61.97 11.94Q62.43 11.66 62.43 11.13L62.43 11.13L62.43 11.13Q62.43 10.78 62.23 10.57L62.23 10.57L62.23 10.57Q62.03 10.36 61.58 10.19L61.58 10.19L61.58 10.19Q61.12 10.02 60.23 9.83L60.23 9.83L60.23 9.83Q59.01 9.56 58.51 9.06L58.51 9.06L58.51 9.06Q58.00 8.55 58.00 7.76L58.00 7.76L58.00 7.76Q58.00 7.24 58.31 6.75L58.31 6.75L58.31 6.75Q58.62 6.27 59.23 5.97L59.23 5.97L59.23 5.97Q59.84 5.67 60.68 5.67L60.68 5.67L60.68 5.67Q61.56 5.67 62.18 5.96L62.18 5.96L62.18 5.96Q62.80 6.26 63.12 6.65L63.12 6.65L63.12 6.65Q63.43 7.04 63.43 7.31L63.43 7.31L63.43 7.31Q63.43 7.43 63.34 7.52L63.34 7.52L63.34 7.52Q63.25 7.60 63.13 7.60L63.13 7.60L62.59 7.60L62.59 7.60Q62.40 7.60 62.31 7.45L62.31 7.45L62.31 7.45Q62.08 7.18 61.91 7.04L61.91 7.04L61.91 7.04Q61.75 6.89 61.45 6.78L61.45 6.78L61.45 6.78Q61.14 6.68 60.68 6.68L60.68 6.68L60.68 6.68Q59.99 6.68 59.63 6.96L59.63 6.96L59.63 6.96Q59.26 7.25 59.26 7.73L59.26 7.73L59.26 7.73Q59.26 8.02 59.42 8.22L59.42 8.22L59.42 8.22Q59.57 8.43 60.00 8.60L60.00 8.60L60.00 8.60Q60.44 8.78 61.29 8.96L61.29 8.96L61.29 8.96Q62.62 9.24 63.17 9.76L63.17 9.76L63.17 9.76Q63.73 10.28 63.73 11.09L63.73 11.09L63.73 11.09Q63.73 11.69 63.38 12.18L63.38 12.18L63.38 12.18Q63.04 12.67 62.36 12.95L62.36 12.95L62.36 12.95Q61.68 13.23 60.75 13.23L60.75 13.23ZM69.30 13.09L69.30 13.09Q69.16 13.09 69.08 13.00L69.08 13.00L69.08 13.00Q68.99 12.91 68.99 12.77L68.99 12.77L68.99 3.63L68.99 3.63Q68.99 3.47 69.08 3.38L69.08 3.38L69.08 3.38Q69.16 3.29 69.30 3.29L69.30 3.29L69.97 3.29L69.97 3.29Q70.13 3.29 70.22 3.38L70.22 3.38L70.22 3.38Q70.31 3.47 70.31 3.63L70.31 3.63L70.31 7.52L75.18 7.52L75.18 3.63L75.18 3.63Q75.18 3.47 75.27 3.38L75.27 3.38L75.27 3.38Q75.36 3.29 75.50 3.29L75.50 3.29L76.17 3.29L76.17 3.29Q76.33 3.29 76.42 3.38L76.42 3.38L76.42 3.38Q76.51 3.47 76.51 3.63L76.51 3.63L76.51 12.77L76.51 12.77Q76.51 12.91 76.41 13.00L76.41 13.00L76.41 13.00Q76.31 13.09 76.17 13.09L76.17 13.09L75.50 13.09L75.50 13.09Q75.36 13.09 75.27 13.00L75.27 13.00L75.27 13.00Q75.18 12.91 75.18 12.77L75.18 12.77L75.18 8.74L70.31 8.74L70.31 12.77L70.31 12.77Q70.31 12.91 70.21 13.00L70.21 13.00L70.21 13.00Q70.11 13.09 69.97 13.09L69.97 13.09L69.30 13.09ZM81.73 13.23L81.73 13.23Q80.19 13.23 79.36 12.36L79.36 12.36L79.36 12.36Q78.53 11.49 78.47 10.05L78.47 10.05L78.46 9.45L78.47 8.85L78.47 8.85Q78.53 7.41 79.37 6.54L79.37 6.54L79.37 6.54Q80.22 5.67 81.73 5.67L81.73 5.67L81.73 5.67Q83.24 5.67 84.09 6.54L84.09 6.54L84.09 6.54Q84.94 7.41 84.99 8.85L84.99 8.85L84.99 8.85Q85.02 9.16 85.02 9.45L85.02 9.45L85.02 9.45Q85.02 9.74 84.99 10.05L84.99 10.05L84.99 10.05Q84.94 11.49 84.10 12.36L84.10 12.36L84.10 12.36Q83.27 13.23 81.73 13.23L81.73 13.23ZM81.73 12.18L81.73 12.18Q82.63 12.18 83.15 11.61L83.15 11.61L83.15 11.61Q83.68 11.05 83.72 9.98L83.72 9.98L83.72 9.98Q83.73 9.84 83.73 9.45L83.73 9.45L83.73 9.45Q83.73 9.06 83.72 8.92L83.72 8.92L83.72 8.92Q83.68 7.85 83.15 7.29L83.15 7.29L83.15 7.29Q82.63 6.72 81.73 6.72L81.73 6.72L81.73 6.72Q80.84 6.72 80.31 7.29L80.31 7.29L80.31 7.29Q79.79 7.85 79.74 8.92L79.74 8.92L79.73 9.45L79.74 9.98L79.74 9.98Q79.79 11.05 80.31 11.61L80.31 11.61L80.31 11.61Q80.84 12.18 81.73 12.18L81.73 12.18ZM89.59 13.09L89.59 13.09Q87.42 13.09 87.42 10.64L87.42 10.64L87.42 6.89L86.31 6.89L86.31 6.89Q86.17 6.89 86.09 6.80L86.09 6.80L86.09 6.80Q86.00 6.72 86.00 6.58L86.00 6.58L86.00 6.13L86.00 6.13Q86.00 5.99 86.09 5.90L86.09 5.90L86.09 5.90Q86.17 5.81 86.31 5.81L86.31 5.81L87.42 5.81L87.42 3.47L87.42 3.47Q87.42 3.33 87.50 3.24L87.50 3.24L87.50 3.24Q87.58 3.15 87.72 3.15L87.72 3.15L88.34 3.15L88.34 3.15Q88.48 3.15 88.57 3.24L88.57 3.24L88.57 3.24Q88.66 3.33 88.66 3.47L88.66 3.47L88.66 5.81L90.40 5.81L90.40 5.81Q90.54 5.81 90.63 5.90L90.63 5.90L90.63 5.90Q90.72 5.99 90.72 6.13L90.72 6.13L90.72 6.58L90.72 6.58Q90.72 6.72 90.63 6.80L90.63 6.80L90.63 6.80Q90.54 6.89 90.40 6.89L90.40 6.89L88.66 6.89L88.66 10.54L88.66 10.54Q88.66 11.26 88.89 11.62L88.89 11.62L88.89 11.62Q89.12 11.98 89.68 11.98L89.68 11.98L90.54 11.98L90.54 11.98Q90.68 11.98 90.76 12.07L90.76 12.07L90.76 12.07Q90.85 12.17 90.85 12.31L90.85 12.31L90.85 12.77L90.85 12.77Q90.85 12.91 90.76 13.00L90.76 13.00L90.76 13.00Q90.68 13.09 90.54 13.09L90.54 13.09L89.59 13.09ZM95.10 13.23L95.10 13.23Q93.67 13.23 92.82 12.34L92.82 12.34L92.82 12.34Q91.97 11.45 91.88 9.91L91.88 9.91L91.87 9.44L91.88 8.97L91.88 8.97Q91.97 7.46 92.82 6.57L92.82 6.57L92.82 6.57Q93.67 5.67 95.10 5.67L95.10 5.67L95.10 5.67Q96.64 5.67 97.49 6.65L97.49 6.65L97.49 6.65Q98.34 7.63 98.34 9.31L98.34 9.31L98.34 9.56L98.34 9.56Q98.34 9.70 98.24 9.79L98.24 9.79L98.24 9.79Q98.15 9.88 98.01 9.88L98.01 9.88L93.16 9.88L93.16 10.01L93.16 10.01Q93.20 10.92 93.72 11.56L93.72 11.56L93.72 11.56Q94.23 12.21 95.09 12.21L95.09 12.21L95.09 12.21Q95.75 12.21 96.16 11.95L96.16 11.95L96.16 11.95Q96.57 11.69 96.78 11.41L96.78 11.41L96.78 11.41Q96.91 11.24 96.98 11.21L96.98 11.21L96.98 11.21Q97.05 11.17 97.22 11.17L97.22 11.17L97.83 11.17L97.83 11.17Q97.96 11.17 98.05 11.24L98.05 11.24L98.05 11.24Q98.14 11.31 98.14 11.42L98.14 11.42L98.14 11.42Q98.14 11.73 97.76 12.17L97.76 12.17L97.76 12.17Q97.38 12.60 96.69 12.91L96.69 12.91L96.69 12.91Q96.00 13.23 95.10 13.23L95.10 13.23ZM93.16 8.93L97.06 8.93L97.06 8.89L97.06 8.89Q97.06 7.91 96.53 7.29L96.53 7.29L96.53 7.29Q96.00 6.68 95.10 6.68L95.10 6.68L95.10 6.68Q94.19 6.68 93.67 7.29L93.67 7.29L93.67 7.29Q93.16 7.91 93.16 8.89L93.16 8.89L93.16 8.93ZM100.38 13.09L100.38 13.09Q100.24 13.09 100.15 13.00L100.15 13.00L100.15 13.00Q100.06 12.91 100.06 12.77L100.06 12.77L100.06 3.47L100.06 3.47Q100.06 3.32 100.15 3.23L100.15 3.23L100.15 3.23Q100.24 3.15 100.38 3.15L100.38 3.15L101.00 3.15L101.00 3.15Q101.14 3.15 101.23 3.24L101.23 3.24L101.23 3.24Q101.32 3.33 101.32 3.47L101.32 3.47L101.32 12.77L101.32 12.77Q101.32 12.91 101.23 13.00L101.23 13.00L101.23 13.00Q101.14 13.09 101.00 13.09L101.00 13.09L100.38 13.09ZM105.91 13.23L105.91 13.23Q104.94 13.23 104.28 12.91L104.28 12.91L104.28 12.91Q103.61 12.60 103.29 12.19L103.29 12.19L103.29 12.19Q102.97 11.79 102.97 11.52L102.97 11.52L102.97 11.52Q102.97 11.38 103.07 11.30L103.07 11.30L103.07 11.30Q103.17 11.23 103.28 11.23L103.28 11.23L103.87 11.23L103.87 11.23Q103.95 11.23 104.00 11.26L104.00 11.26L104.00 11.26Q104.05 11.28 104.13 11.38L104.13 11.38L104.13 11.38Q104.45 11.77 104.85 12.00L104.85 12.00L104.85 12.00Q105.25 12.22 105.92 12.22L105.92 12.22L105.92 12.22Q106.68 12.22 107.13 11.94L107.13 11.94L107.13 11.94Q107.59 11.66 107.59 11.13L107.59 11.13L107.59 11.13Q107.59 10.78 107.39 10.57L107.39 10.57L107.39 10.57Q107.20 10.36 106.74 10.19L106.74 10.19L106.74 10.19Q106.29 10.02 105.39 9.83L105.39 9.83L105.39 9.83Q104.17 9.56 103.67 9.06L103.67 9.06L103.67 9.06Q103.17 8.55 103.17 7.76L103.17 7.76L103.17 7.76Q103.17 7.24 103.47 6.75L103.47 6.75L103.47 6.75Q103.78 6.27 104.39 5.97L104.39 5.97L104.39 5.97Q105 5.67 105.84 5.67L105.84 5.67L105.84 5.67Q106.72 5.67 107.34 5.96L107.34 5.96L107.34 5.96Q107.97 6.26 108.28 6.65L108.28 6.65L108.28 6.65Q108.60 7.04 108.60 7.31L108.60 7.31L108.60 7.31Q108.60 7.43 108.51 7.52L108.51 7.52L108.51 7.52Q108.42 7.60 108.29 7.60L108.29 7.60L107.76 7.60L107.76 7.60Q107.56 7.60 107.48 7.45L107.48 7.45L107.48 7.45Q107.24 7.18 107.08 7.04L107.08 7.04L107.08 7.04Q106.92 6.89 106.61 6.78L106.61 6.78L106.61 6.78Q106.30 6.68 105.84 6.68L105.84 6.68L105.84 6.68Q105.15 6.68 104.79 6.96L104.79 6.96L104.79 6.96Q104.43 7.25 104.43 7.73L104.43 7.73L104.43 7.73Q104.43 8.02 104.58 8.22L104.58 8.22L104.58 8.22Q104.73 8.43 105.17 8.60L105.17 8.60L105.17 8.60Q105.60 8.78 106.46 8.96L106.46 8.96L106.46 8.96Q107.79 9.24 108.34 9.76L108.34 9.76L108.34 9.76Q108.89 10.28 108.89 11.09L108.89 11.09L108.89 11.09Q108.89 11.69 108.55 12.18L108.55 12.18L108.55 12.18Q108.21 12.67 107.53 12.95L107.53 12.95L107.53 12.95Q106.85 13.23 105.91 13.23L105.91 13.23Z"></path></g><defs data-v-fde0c5aa=""><linearGradient data-v-fde0c5aa="" gradientTransform="rotate(25)" id="2d50c8ee-8e14-407b-960c-53a00b06e66d" x1="0%" y1="0%" x2="100%" y2="0%"><stop data-v-fde0c5aa="" offset="0%" stop-color="#181B80" stop-opacity="1"></stop><stop data-v-fde0c5aa="" offset="100%" stop-color="#181ED9" stop-opacity="1"></stop></linearGradient></defs><g data-v-fde0c5aa="" id="0bb9ed2b-d0d1-42ae-bcb6-e5cb739427df" stroke="none" fill="url(#2d50c8ee-8e14-407b-960c-53a00b06e66d)" transform="matrix(0.4206428950889821,0,0,0.4206428950889821,-189.36519197308252,-33.50336413267382)"><path d="M621.916 432.394l-5.405 8.813-23.89-39.664-27.025 44.07-2.376-3.944-17.947 29.278h99.871z"></path></g><!----></svg>